<svg height="60" viewBox="0 0 64 64" width="60" xmlns="http://www.w3.org/2000/svg"><g id="Car_cleaning" data-name="Car cleaning"><circle cx="19" cy="14" fill="#bdfdff" r="6"/><circle cx="43" cy="8" fill="#bdfdff" r="6"/><circle cx="32" cy="14" fill="#3d9ae2" r="3"/><circle cx="40" cy="19" fill="#3d9ae2" r="2"/><path d="m7 51h50v5h-50z" fill="#e0e0e2"/><path d="m11 56h6a0 0 0 0 1 0 0v4a2 2 0 0 1 -2 2h-2a2 2 0 0 1 -2-2v-4a0 0 0 0 1 0 0z" fill="#57565c"/><path d="m47 56h6a0 0 0 0 1 0 0v4a2 2 0 0 1 -2 2h-2a2 2 0 0 1 -2-2v-4a0 0 0 0 1 0 0z" fill="#57565c"/><path d="m14 38h36a4 4 0 0 1 4 4v9a0 0 0 0 1 0 0h-44a0 0 0 0 1 0 0v-9a4 4 0 0 1 4-4z" fill="#ab2300"/><path d="m23 42h18v6h-18z" fill="#57565c"/><circle cx="16" cy="45" fill="#ffeb99" r="3"/><circle cx="48" cy="45" fill="#ffeb99" r="3"/><path d="m50 38h-36l2.33-14h31.34z" fill="#3d9ae2"/><path d="m47.67 24h-31.34l.11-.66a4 4 0 0 1 3.95-3.34h23.22a4 4 0 0 1 3.95 3.34z" fill="#ab2300"/><path d="m45 36a5.064 5.064 0 0 1 -.39 1.95l-9.19.05a4.941 4.941 0 0 1 -.42-2 5 5 0 0 1 10 0z" fill="#e0e0e2"/><g fill="#57565c"><path d="m7 32h4v4h-4z"/><path d="m53 32h4v4h-4z" transform="matrix(-1 0 0 -1 110 68)"/><path d="m26 51h13v5h-13z"/></g><path d="m49 15a1 1 0 0 0 0 2h2v2a1 1 0 0 0 2 0v-2h2a1 1 0 0 0 0-2h-2v-2a1 1 0 0 0 -2 0v2z"/><path d="m21 14a1 1 0 0 0 2 0 4 4 0 0 0 -4-4 1 1 0 0 0 0 2 2 2 0 0 1 2 2z"/><path d="m43 15a7 7 0 1 0 -7-7 7.008 7.008 0 0 0 7 7zm0-12a5 5 0 1 1 -5 5 5.006 5.006 0 0 1 5-5z"/><path d="m43 6a2 2 0 0 1 2 2 1 1 0 0 0 2 0 4 4 0 0 0 -4-4 1 1 0 0 0 0 2z"/><path d="m32 18a4 4 0 1 0 -4-4 4 4 0 0 0 4 4zm0-6a2 2 0 1 1 -2 2 2 2 0 0 1 2-2z"/><path d="m41 41h-18a1 1 0 0 0 -1 1v6a1 1 0 0 0 1 1h18a1 1 0 0 0 1-1v-6a1 1 0 0 0 -1-1zm-1 6h-16v-4h16z"/><path d="m16 41a4 4 0 1 0 4 4 4 4 0 0 0 -4-4zm0 6a2 2 0 1 1 2-2 2 2 0 0 1 -2 2z"/><path d="m44 45a4 4 0 1 0 4-4 4 4 0 0 0 -4 4zm6 0a2 2 0 1 1 -2-2 2 2 0 0 1 2 2z"/><path d="m53 37h4a1 1 0 0 0 1-1v-4a1 1 0 0 0 -1-1h-4a1 1 0 0 0 -1 1v1h-1.819l-1.635-9.823a4.98 4.98 0 0 0 -4.936-4.177h-.61a3 3 0 0 0 -6 0h-13.111a7 7 0 1 0 -7.168 1.612 4.964 4.964 0 0 0 -1.267 2.564l-1.635 9.824h-1.819v-1a1 1 0 0 0 -1-1h-4a1 1 0 0 0 -1 1v4a1 1 0 0 0 1 1h4a1 1 0 0 0 1-1v-1h1.486l-.342 2.053c-2.606.256-4.144 1.683-4.144 3.947v9h-2a1 1 0 0 0 -1 1v5a1 1 0 0 0 1 1h3v3a3 3 0 0 0 3 3h2a3 3 0 0 0 3-3v-3h28v3a3 3 0 0 0 3 3h2a3 3 0 0 0 3-3v-3h3a1 1 0 0 0 1-1v-5a1 1 0 0 0 -1-1h-2v-9c0-2.264-1.538-3.691-4.144-3.947l-.342-2.053h1.486v1a1 1 0 0 0 1 1zm1-4h2v2h-2zm-44 2h-2v-2h2zm30-17a1 1 0 1 1 -1 1 1 1 0 0 1 1-1zm-2.22 3a2.964 2.964 0 0 0 4.44 0h1.39a2.99 2.99 0 0 1 2.833 2h-28.886a2.989 2.989 0 0 1 2.833-2zm-23.78-7a5 5 0 1 1 5 5 5.006 5.006 0 0 1 -5-5zm3.178 11h29.644l2 12h-2.911a6 6 0 1 0 -11.821 0h-18.909zm18.963 12a4 4 0 1 1 7.717 0zm-20.141 23a1 1 0 0 1 -1 1h-2a1 1 0 0 1 -1-1v-3h4zm-8-5v-3h17v3zm19 0v-3h11v3zm25 5a1 1 0 0 1 -1 1h-2a1 1 0 0 1 -1-1v-3h4zm4-5h-16v-3h16zm-3-14v9h-42v-9c0-.495 0-2 3-2h36c3 0 3 1.505 3 2z"/><path d="m9 7h1v1a1 1 0 0 0 2 0v-1h1a1 1 0 0 0 0-2h-1v-1a1 1 0 0 0 -2 0v1h-1a1 1 0 0 0 0 2z"/></g></svg>