<svg id="icons" enable-background="new 0 0 64 64" height="60" viewBox="0 0 64 64" width="60" xmlns="http://www.w3.org/2000/svg"><g><g><path d="m60.5 59.504c0 1.03-.79 1.891-1.8 1.99h-14.4c-1.01-.1-1.8-.96-1.8-1.99v-4c0 1.101.9 2 2 2h14c1.1 0 2-.899 2-2z" fill="#f6bb42"/></g><g><path d="m60.5 39.504v16c0 1.101-.9 2-2 2h-14c-1.1 0-2-.899-2-2v-9.43-6.57-4c0-1.1.9-2 2-2h14c1.1 0 2 .9 2 2z" fill="#ffce54"/></g><g><path d="m28.52 11.514c0 1.65-1.35 3-3 3-1.659 0-3-1.35-3-3 0-1.659 3-4.01 3-4.01s3 2.35 3 4.01z" fill="#e6e9ed"/></g><g><path d="m25.5 18.494c-8.18 0-12.72 1.5-15 2.66v-2.66c0-8.29 6.72-15 15-15 8.29 0 15 6.71 15 15v2.66c-2.29-1.17-6.82-2.66-15-2.66zm.02-3.98c1.65 0 3-1.35 3-3 0-1.659-3-4.01-3-4.01s-3 2.351-3 4.01c0 1.65 1.34 3 3 3z" fill="#5d9cec"/></g><g><g><path d="m25.5 3.494c-.68 0-1.345.062-2.001.148 7.339.98 12.997 7.242 12.997 14.852v1.198c1.765.46 3.073.986 4.004 1.462v-2.66c0-8.29-6.71-15-15-15z" fill="#4a89dc"/></g></g><g><path d="m40.5 21.154c1.45.74 2 1.34 2 1.34h-2-30-2s.55-.6 2-1.34c2.28-1.16 6.82-2.66 15-2.66s12.71 1.49 15 2.66z" fill="#e6e9ed"/></g><g><path d="m40.5 22.494v4c0 5.75-3.24 10.75-8 13.27-2.09 1.101-4.47 1.73-7 1.73s-4.91-.63-7-1.73c-4.76-2.52-8-7.52-8-13.27v-4z" fill="#eac6bb"/></g><g><path d="m36.496 22.494v4c0 5.75-3.24 10.75-8 13.27-1.528.805-3.214 1.354-4.998 1.594.655.088 1.322.137 2.002.137 2.53 0 4.91-.63 7-1.73 4.76-2.52 8-7.52 8-13.27v-4h-4.004z" fill="#d3b1a9"/></g><g><path d="m42.5 59.504c0 1.03.79 1.891 1.8 1.99h-10.78c0-4.42-3.59-8-8-8-4.42 0-8 3.58-8 8h-14.02v-8c0-4.42 3.58-8 8-8h7c.01 2.22 3.15 4 7 4 3.86 0 6.99-1.78 7-4h7c1.06 0 2.07.21 3 .58v9.43z" fill="#5d9cec"/></g><g><path d="m33.52 61.494h-4c0-2.21-1.789-4-4-4-2.21 0-4 1.79-4 4h-4c0-4.42 3.58-8 8-8 4.41 0 8 3.58 8 8z" fill="#e6e9ed"/></g><g><path d="m29.52 61.494h-8c0-2.21 1.79-4 4-4s4 1.79 4 4z" fill="#5d9cec"/></g><g><path d="m32.5 45.484v.01c-.01 2.22-3.14 4-7 4-3.85 0-6.99-1.78-7-4v-.01-5.721c2.09 1.101 4.47 1.73 7 1.73s4.91-.63 7-1.73z" fill="#eac6bb"/></g></g><g><g><g><path d="m58.502 58.506h-14.004c-1.654 0-3-1.346-3-3v-20c0-1.654 1.346-3 3-3h14.004c1.654 0 3 1.346 3 3v20c0 1.654-1.346 3-3 3zm-14.004-24c-.552 0-1 .448-1 1v20c0 .552.448 1 1 1h14.004c.552 0 1-.448 1-1v-20c0-.552-.448-1-1-1z"/></g><g><path d="m58.502 62.506h-14.004c-1.654 0-3-1.346-3-3v-20c0-.553.447-1 1-1s1 .447 1 1v20c0 .552.448 1 1 1h14.004c.552 0 1-.448 1-1v-20c0-.553.447-1 1-1s1 .447 1 1v20c0 1.654-1.346 3-3 3z"/></g><g><g><path d="m45.53 52.506c-.553 0-1.005-.447-1.005-1s.442-1 .994-1h.011c.552 0 1 .447 1 1s-.448 1-1 1z"/></g><g><path d="m48.53 55.506c-.553 0-1.005-.447-1.005-1s.442-1 .994-1h.011c.552 0 1 .447 1 1s-.448 1-1 1z"/></g><g><path d="m45.53 46.506c-.553 0-1.005-.447-1.005-1s.442-1 .994-1h.011c.552 0 1 .447 1 1s-.448 1-1 1z"/></g><g><path d="m48.53 49.506c-.553 0-1.005-.447-1.005-1s.442-1 .994-1h.011c.552 0 1 .447 1 1s-.448 1-1 1z"/></g><g><path d="m51.53 52.506c-.553 0-1.005-.447-1.005-1s.442-1 .994-1h.011c.552 0 1 .447 1 1s-.448 1-1 1z"/></g><g><path d="m54.53 55.506c-.553 0-1.005-.447-1.005-1s.442-1 .994-1h.011c.552 0 1 .447 1 1s-.448 1-1 1z"/></g><g><path d="m45.53 40.506c-.553 0-1.005-.447-1.005-1s.442-1 .994-1h.011c.552 0 1 .447 1 1s-.448 1-1 1z"/></g><g><path d="m48.53 43.506c-.553 0-1.005-.447-1.005-1s.442-1 .994-1h.011c.552 0 1 .447 1 1s-.448 1-1 1z"/></g><g><path d="m51.53 46.506c-.553 0-1.005-.447-1.005-1s.442-1 .994-1h.011c.552 0 1 .447 1 1s-.448 1-1 1z"/></g><g><path d="m54.53 49.506c-.553 0-1.005-.447-1.005-1s.442-1 .994-1h.011c.552 0 1 .447 1 1s-.448 1-1 1z"/></g><g><path d="m57.53 52.506c-.553 0-1.005-.447-1.005-1s.442-1 .994-1h.011c.552 0 1 .447 1 1s-.448 1-1 1z"/></g><g><path d="m48.53 37.506c-.553 0-1.005-.447-1.005-1s.442-1 .994-1h.011c.552 0 1 .447 1 1s-.448 1-1 1z"/></g><g><path d="m51.53 40.506c-.553 0-1.005-.447-1.005-1s.442-1 .994-1h.011c.552 0 1 .447 1 1s-.448 1-1 1z"/></g><g><path d="m54.53 43.506c-.553 0-1.005-.447-1.005-1s.442-1 .994-1h.011c.552 0 1 .447 1 1s-.448 1-1 1z"/></g><g><path d="m57.53 46.506c-.553 0-1.005-.447-1.005-1s.442-1 .994-1h.011c.552 0 1 .447 1 1s-.448 1-1 1z"/></g><g><path d="m54.53 37.506c-.553 0-1.005-.447-1.005-1s.442-1 .994-1h.011c.552 0 1 .447 1 1s-.448 1-1 1z"/></g><g><path d="m57.53 40.506c-.553 0-1.005-.447-1.005-1s.442-1 .994-1h.011c.552 0 1 .447 1 1s-.448 1-1 1z"/></g></g></g><g><g><path d="m3.498 54.498c-.553 0-1-.447-1-1 0-4.964 4.038-9.002 9.002-9.002.553 0 1 .447 1 1s-.447 1-1 1c-3.861 0-7.002 3.141-7.002 7.002 0 .553-.447 1-1 1z"/></g><g><path d="m42.492 47.076c-.125 0-.251-.023-.374-.072-.832-.336-1.714-.506-2.62-.506-.553 0-1-.447-1-1s.447-1 1-1c1.163 0 2.297.219 3.368.65.512.207.76.789.554 1.302-.157.39-.532.626-.928.626z"/></g><g><path d="m18.498 46.498-6.998-.002c-.553 0-1-.448-1-1 0-.553.448-1 1-1l6.998.002c.553 0 1 .448 1 1 0 .553-.448 1-1 1z"/></g><g><path d="m39.498 46.498-7-.002c-.553 0-1-.448-1-1 0-.553.448-1 1-1l7 .002c.553 0 1 .448 1 1 0 .553-.448 1-1 1z"/></g><g><path d="m3.5 62.494c-.552 0-1-.447-1-1l-.002-7.996c0-.552.447-1 1-1 .552 0 1 .447 1 1l.002 7.996c0 .552-.447 1-1 1z"/></g><g><path d="m18.498 46.498c-.553 0-1-.447-1-1v-5.732c0-.553.447-1 1-1s1 .447 1 1v5.732c0 .553-.447 1-1 1z"/></g><g><path d="m32.498 46.496c-.553 0-1-.447-1-1v-5.73c0-.553.447-1 1-1s1 .447 1 1v5.73c0 .553-.447 1-1 1z"/></g><g><path d="m25.498 42.496c-8.822 0-16-7.178-16-16 0-.553.447-1 1-1s1 .447 1 1c0 7.72 6.28 14 14 14s14-6.28 14-14c0-.553.447-1 1-1s1 .447 1 1c0 8.822-7.178 16-16 16z"/></g><g><path d="m40.498 19.494c-.553 0-1-.447-1-1 0-7.72-6.28-14-14-14s-14 6.28-14 14c0 .553-.447 1-1 1s-1-.447-1-1c0-8.822 7.178-16 16-16s16 7.178 16 16c0 .553-.447 1-1 1z"/></g><g><path d="m10.498 27.496c-.553 0-1-.447-1-1v-4.002c0-.553.447-1 1-1s1 .447 1 1v4.002c0 .553-.447 1-1 1z"/></g><g><path d="m40.498 27.496c-.553 0-1-.447-1-1v-4.002c0-.553.447-1 1-1s1 .447 1 1v4.002c0 .553-.447 1-1 1z"/></g><g><path d="" style="fill:none;stroke:#000;stroke-width:2;stroke-linecap:round;stroke-linejoin:round;stroke-miterlimit:10"/></g><g><path d="" style="fill:none;stroke:#000;stroke-width:2;stroke-linecap:round;stroke-linejoin:round;stroke-miterlimit:10"/></g><g><path d="m42.498 23.494h-34c-.553 0-1-.447-1-1s.447-1 1-1h34c.553 0 1 .447 1 1s-.447 1-1 1z"/></g><g><path d="m42.498 23.494c-.272 0-.544-.11-.741-.328-.026-.027-3.654-3.672-16.259-3.672s-16.232 3.645-16.268 3.682c-.38.396-1.008.419-1.409.046-.4-.373-.432-.993-.064-1.399.16-.177 4.08-4.328 17.741-4.328s17.581 4.151 17.741 4.328c.371.409.34 1.042-.069 1.413-.191.172-.432.258-.672.258z"/></g><g><path d="m40.498 22.154c-.553 0-1-.447-1-1v-2.66c0-.553.447-1 1-1s1 .447 1 1v2.66c0 .553-.447 1-1 1z"/></g><g><path d="m10.498 22.154c-.553 0-1-.447-1-1v-2.66c0-.553.447-1 1-1s1 .447 1 1v2.66c0 .553-.447 1-1 1z"/></g><g><path d="m25.498 4.494c-.553 0-1-.447-1-1v-1c0-.553.447-1 1-1s1 .447 1 1v1c0 .553-.447 1-1 1z"/></g><g><path d="m25.516 15.514c-2.206 0-4-1.794-4-4 0-2.043 2.819-4.349 3.385-4.79.361-.283.869-.283 1.23 0 .565.441 3.385 2.747 3.385 4.79 0 2.206-1.794 4-4 4zm-.001-6.696c-1.05.945-1.999 2.111-1.999 2.695 0 1.103.897 2 2 2s2-.897 2-2c0-.627-1.027-1.816-2.001-2.695z"/></g><g><g><path d="m33.514 62.498c-.553 0-1-.447-1-1 0-3.859-3.141-7-7-7s-7 3.141-7 7c0 .553-.447 1-1 1s-1-.447-1-1c0-4.963 4.037-9 9-9s9 4.037 9 9c0 .553-.448 1-1 1z"/></g><g><path d="m29.514 62.498c-.553 0-1-.447-1-1 0-1.654-1.346-3-3-3s-3 1.346-3 3c0 .553-.447 1-1 1s-1-.447-1-1c0-2.757 2.243-5 5-5s5 2.243 5 5c0 .553-.448 1-1 1z"/></g></g></g><g><path d="m25.498 50.496c-4.486 0-8-2.198-8-5.004 0-.553.447-1 1-1s1 .447 1 1c0 1.421 2.464 3.004 6 3.004s6-1.583 6-3.004c0-.553.447-1 1-1s1 .447 1 1c0 2.806-3.514 5.004-8 5.004z"/></g></g></svg>