<svg id="Layer_3" enable-background="new 0 0 64 64" height="60" viewBox="0 0 64 64" width="60" xmlns="http://www.w3.org/2000/svg"><path d="m48 32c0-.699-.06-1.383-.147-2.059l-9.853-3.941-3.941-9.853c-.676-.087-1.36-.147-2.059-.147s-1.383.06-2.059.147l-3.941 9.853-9.853 3.941c-.087.676-.147 1.36-.147 2.059s.06 1.383.147 2.059l9.853 3.941 3.941 9.853c.676.087 1.36.147 2.059.147.698 0 1.382-.055 2.057-.141l3.943-9.859 9.857-3.943c.087-.675.143-1.359.143-2.057z" fill="#4d5d7a"/><path d="m32 2c-16.569 0-30 13.431-30 30s13.431 30 30 30 30-13.431 30-30-13.431-30-30-30zm13.072 39.229-4.072 4.001c-2.564 1.748-5.663 2.77-9 2.77-8.837 0-16-7.163-16-16s7.163-16 16-16 16 7.163 16 16c0 3.437-1.084 6.621-2.928 9.229z" fill="#8892a0"/><path d="m53 60.067c.395.219.782.454 1.16.706l.679.453c.757.505 1.646.774 2.555.774 2.544 0 4.606-2.062 4.606-4.606 0-.909-.269-1.798-.774-2.555l-.73-1.096c-1.627-2.44-2.496-5.309-2.496-8.243 0-2.934.869-5.803 2.496-8.244l.73-1.096c.505-.756.774-1.645.774-2.554 0-2.544-2.062-4.606-4.606-4.606-.909 0-1.798.269-2.555.774l-.68.453c-2.711 1.808-5.899 2.773-9.159 2.773-3.26 0-6.448-.965-9.16-2.773l-.68-.453c-.756-.505-1.645-.774-2.554-.774-2.544 0-4.606 2.062-4.606 4.606 0 .909.269 1.798.774 2.555l.73 1.096c1.627 2.44 2.496 5.309 2.496 8.243 0 2.934-.869 5.803-2.496 8.244l-.73 1.096c-.505.756-.774 1.645-.774 2.554 0 2.544 2.062 4.606 4.606 4.606.909 0 1.798-.269 2.555-.773l.68-.453c1.427-.951 2.985-1.669 4.617-2.136" fill="#f5cf88"/><path d="m35.84 30.227-.68-.453c-.756-.505-1.645-.774-2.554-.774-2.544 0-4.606 2.062-4.606 4.606 0 .909.269 1.798.773 2.555l.73 1.096c1.628 2.44 2.497 5.309 2.497 8.243s-.869 5.803-2.496 8.244l-.159.239c13.139-.345 23.655-8.709 23.655-18.983 0-1.307-.171-2.583-.495-3.816-2.317 1.183-4.885 1.816-7.505 1.816-3.26 0-6.448-.965-9.16-2.773z" fill="#fadfb2"/><path d="m53 63v-5l2-2v-11c0-1.105-.895-2-2-2-1.105 0-2 .895-2 2v-4c0-1.105-.895-2-2-2-1.105 0-2 .895-2 2v-2c0-1.105-.895-2-2-2-1.105 0-2 .895-2 2v2c0-1.105-.895-2-2-2-1.105 0-2 .895-2 2v10c0-1.105-.895-2-2-2-1.105 0-2 .895-2 2v4l6 4v4" fill="#efbe9a"/><path d="m29.071 48.372-3.841-9.602-9.602-3.841.742-1.857 10 4c.255.102.456.303.558.557l4 10z"/><path d="m16.371 30.929-.742-1.857 9.602-3.841 3.841-9.602 1.857.743-4 10c-.102.254-.303.455-.558.557z"/><path d="m47.629 30.929-10-4c-.255-.102-.456-.303-.558-.557l-4-10 1.857-.743 3.841 9.602 9.602 3.841z"/><path d="m7 32h-2c0-14.888 12.112-27 27-27v2c-13.785 0-25 11.215-25 25z"/><path d="m5 34h2v2h-2z"/><path d="m25.801 62.38c-14.37-2.918-24.801-15.694-24.801-30.38 0-17.093 13.906-31 31-31 15.203 0 28.061 10.865 30.571 25.834l-1.973.331c-2.348-14.002-14.375-24.165-28.598-24.165-15.99 0-29 13.009-29 29 0 13.739 9.757 25.691 23.199 28.42z"/><path d="m32 49c-9.374 0-17-7.626-17-17s7.626-17 17-17 17 7.626 17 17c0 .356-.012.709-.032 1.059l-1.996-.118c.018-.311.028-.625.028-.941 0-8.271-6.729-15-15-15s-15 6.729-15 15 6.729 15 15 15z"/><path d="m42 63h-2v-3.465l-5.555-3.703c-.278-.186-.445-.498-.445-.832v-4c0-1.654 1.346-3 3-3s3 1.346 3 3v3h-2v-3c0-.551-.448-1-1-1s-1 .449-1 1v3.465l5.555 3.703c.278.186.445.498.445.832z"/><path d="m40 51h-2v-10c0-1.654 1.346-3 3-3s3 1.346 3 3v7h-2v-7c0-.551-.448-1-1-1s-1 .449-1 1z"/><path d="m48 48h-2v-7c0-1.654 1.346-3 3-3s3 1.346 3 3v4h-2v-4c0-.551-.448-1-1-1s-1 .449-1 1z"/><path d="m48 48h-2v-9c0-.551-.448-1-1-1s-1 .449-1 1v9h-2v-9c0-1.654 1.346-3 3-3s3 1.346 3 3z"/><path d="m54 63h-2v-5c0-.265.105-.52.293-.707l1.707-1.707v-10.586c0-.551-.448-1-1-1s-1 .449-1 1v3h-2v-3c0-1.654 1.346-3 3-3s3 1.346 3 3v11c0 .265-.105.52-.293.707l-1.707 1.707z"/><path d="m57.395 63c-1.11 0-2.186-.326-3.109-.941l-.68-.453c-.354-.237-.718-.458-1.09-.663l.969-1.75c.419.232.829.482 1.23.749l.68.453c.595.396 1.286.605 2 .605 1.988 0 3.605-1.617 3.605-3.605 0-.714-.209-1.406-.605-2l-.73-1.096c-1.744-2.614-2.665-5.656-2.665-8.799s.921-6.185 2.664-8.799l.73-1.096c.396-.594.605-1.286.605-2 .001-1.988-1.616-3.605-3.604-3.605-.714 0-1.405.209-2 .605l-.68.453c-2.887 1.925-6.246 2.942-9.715 2.942s-6.828-1.017-9.715-2.941l-.68-.453c-.595-.396-1.286-.605-2-.605-1.988-.001-3.605 1.616-3.605 3.604 0 .714.209 1.406.605 2l.73 1.096c1.744 2.614 2.665 5.656 2.665 8.799s-.921 6.185-2.664 8.799l-.73 1.096c-.396.594-.605 1.286-.605 2-.001 1.988 1.616 3.605 3.604 3.605.714 0 1.405-.209 2-.605l.68-.453c1.508-1.005 3.154-1.767 4.896-2.266l.551 1.923c-1.542.441-3.002 1.117-4.337 2.007l-.68.453c-.924.615-1.999.941-3.11.941-3.09 0-5.605-2.515-5.605-5.605 0-1.11.325-2.185.941-3.109l.73-1.096c1.524-2.285 2.329-4.944 2.329-7.69s-.805-5.405-2.328-7.689l-.73-1.096c-.616-.924-.941-2-.941-3.109-.001-3.091 2.514-5.606 5.604-5.606 1.11 0 2.186.326 3.109.941l.68.453c2.557 1.705 5.533 2.606 8.606 2.606s6.049-.901 8.605-2.605l.68-.453c.924-.616 1.999-.942 3.11-.942 3.09 0 5.605 2.515 5.605 5.605 0 1.11-.325 2.185-.941 3.109l-.73 1.096c-1.524 2.285-2.329 4.944-2.329 7.69s.805 5.405 2.328 7.689l.73 1.096c.616.924.941 2 .941 3.109.001 3.091-2.514 5.606-5.604 5.606z"/></svg>